<?xml version="1.0" encoding="utf-8"?>
<!-- Generator: Adobe Illustrator 25.0.0, SVG Export Plug-In . SVG Version: 6.00 Build 0)  -->
<svg version="1.1" xmlns="http://www.w3.org/2000/svg" xmlns:xlink="http://www.w3.org/1999/xlink" x="0px" y="0px"
	 viewBox="0 0 1000 1000" style="enable-background:new 0 0 1000 1000;" xml:space="preserve">
<style type="text/css">
	.st0{fill:#0E5257;}
</style>
<g id="Your_design">
</g>
<g id="Guides">
	<g>
		<path class="st0" d="M324.68,248.06v96.7c0,4.45,3.61,8.06,8.06,8.06h334.51c4.45,0,8.06-3.61,8.06-8.06v-96.7
			c0-4.45-3.61-8.06-8.06-8.06H332.74C328.29,240,324.68,243.61,324.68,248.06z"/>
		<path class="st0" d="M332.74,760h96.7c4.45,0,8.06-3.61,8.06-8.06V601.98l155.66,155.66c1.51,1.51,3.56,2.36,5.7,2.36h68.38
			c4.45,0,8.06-3.61,8.06-8.06v-68.39c0-2.14-0.85-4.19-2.36-5.7L517.3,522.19h149.95c4.45,0,8.06-3.61,8.06-8.06v-96.7
			c0-4.45-3.61-8.06-8.06-8.06H332.74c-4.45,0-8.06,3.61-8.06,8.06v334.52C324.68,756.39,328.29,760,332.74,760z"/>
	</g>
</g>
</svg>
